<svg width="253" height="208" viewBox="0 0 253 208" fill="none" xmlns="http://www.w3.org/2000/svg">
<path d="M122.287 0.377755C138.481 -0.421303 160.634 0.285888 177.075 0.348343L177.038 207.333C160.524 207.266 142.89 207.707 126.595 207.284C125.303 160.83 127.376 112.691 126.264 66.1958C126.221 64.4192 124.053 63.5845 122.821 64.8649C107.434 80.8514 90.4896 97.456 74.9651 113.308C70.2083 118.102 65.1482 123.051 60.5169 128.082C58.6782 130.079 58.4962 133.078 60.0591 135.298C68.3785 147.114 78.219 158.992 86.7657 171.03C88.9757 174.143 88.5526 178.377 85.8741 181.097C77.466 189.635 69.218 198.33 61.1337 207.176C53.6109 198.565 40.3313 179.638 32.7926 169.93C27.5954 163.237 8.54659 138.914 1.94623 128.543C0.636069 126.484 0.829764 123.905 2.40253 122.039C6.13493 117.611 11.7453 112.13 15.1699 108.607L40.1929 82.9109L87.3146 34.7764C94.3984 27.5004 115.51 4.23711 122.287 0.377755Z" fill="url(#paint0_linear_577_622)"/>
<path d="M202.705 0.294469C219.158 0.202623 235.61 0.210584 252.057 0.31835C252.706 21.4667 252.149 44.4808 252.137 65.7774L252.143 207.455C247.52 207.364 243.025 207.299 238.458 206.852C215.729 204.632 201.934 184.317 202.724 162.422C202.852 158.737 202.699 154.355 202.699 150.563L202.693 119.816L202.705 0.294469Z" fill="url(#paint1_linear_577_622)"/>
<defs>
<linearGradient id="paint0_linear_577_622" x1="143.5" y1="1.31199e-06" x2="88.5374" y2="207.47" gradientUnits="userSpaceOnUse">
<stop stop-color="#FE7801"/>
<stop offset="0.730769" stop-color="#EB4E00"/>
</linearGradient>
<linearGradient id="paint1_linear_577_622" x1="228" y1="207" x2="232" y2="3.5" gradientUnits="userSpaceOnUse">
<stop stop-color="#FC7B01"/>
<stop offset="1" stop-color="#EB4E00"/>
</linearGradient>
</defs>
</svg>
